# xmcd
#
# Track frame offsets:
#	150
#	15727
#	33463
#	53374
#	73231
#	91690
#	104614
#	119707
#	140290
#	157406
#	168299
#	190227
#
# Disc length: 2768 seconds
#
# Revision: 0
# Processed by: cddbd v1.5.2PL0 Copyright (c) Steve Scherf et al.
# Submitted via: audiograbber 1.83.01
#
DISCID=a50ace0c
DTITLE=Garth Brooks - The Ultimate Collection - Cowboys
DYEAR=2016
DGENRE=Country
TTITLE0=Good Ride Cowboy
TTITLE1=Rodeo
TTITLE2=That Girl is a Cowboy
TTITLE3=Rodeo or Mexico
TTITLE4=Night Rider's Lament
TTITLE5=My Baby No Esta Aqui
TTITLE6=Cowgirl's Saddle
TTITLE7=Cowboy Bill
TTITLE8=Midnight Sun
TTITLE9=Romeo and Juliet
TTITLE10=In Lonesome Dove
TTITLE11=The Cowboy Song
EXTD=
EXTT0=
EXTT1=
EXTT2=
EXTT3=
EXTT4=
EXTT5=
EXTT6=
EXTT7=
EXTT8=
EXTT9=
EXTT10=
EXTT11=
PLAYORDER=
